<?xml version="1.0" encoding="UTF-8"?>
<svg id="Layer_1" data-name="Layer 1" xmlns="http://www.w3.org/2000/svg" version="1.1" viewBox="0 0 406.3 412.1">
  <defs>
    <style>
      .cls-1 {
        display: none;
      }

      .cls-1, .cls-2 {
        fill: #078389;
        stroke-width: 0px;
      }
    </style>
  </defs>
  <g>
    <path class="cls-2" d="M171.8,169.4c-7.5-1.8-21.5-.9-28.6-2.1h-.7c-13.1-3-22.8-15.1-30.6-25.5-.4-1.2-.2-2.2.8-3.1,15.1-9.3,15.3-24.4,14.7-40.3.4-9.1-7.5-8.8-14.8-9.6-6.8-.5-16.7-2.8-22.8-2-.8.2-2,.9-2.1,1.7-.5,6.4-4.3,74.6-5.3,90.8-.5,3.7,2,3.9,6.7,4.2,4.2,0,10.9,1.6,14.9.6,1.4-8.8-.8-31.1-.2-35.8.4-.8.9.3,1.8,1.5,11.4,18,27.5,41.2,51.9,38.5,8.4-.2,18-11.1,14.6-18.8h0ZM104.9,127.9c-1.2.3-3.1-.3-3.6-1.5v-.3c-1.2-4.2,0-13.1.2-17.6,0-2.3.6-5,2-6,2.3-1.9,7.6-1.5,9,1.7,1,2.3.2,4.6.2,6.9-.6,5.9-.7,15.3-7.7,16.8Z"/>
    <path class="cls-2" d="M241.1,111c3.1-2.2,7-4.9,7-10.3s-3.9-8.1-7-10.3c-3-2.1-4.8-3.5-4.8-6.2s1.8-4,4.8-6.2c3.1-2.2,7-4.8,7-10.3s-3.9-8.2-7-10.3c-3-2.1-4.8-3.5-4.8-6.2s3-5.8,5.6-8.5c3.6-3.8,8.7-9,3.7-13.9-4.9-4.9-10.1.1-13.9,3.8-2.7,2.6-5.9,5.6-8.6,5.6s-4.1-1.8-6.2-4.8c-2.2-3.1-4.8-7-10.3-7s-8.2,3.9-10.3,7c-2.1,3-3.5,4.8-6.1,4.8s-4.1-1.8-6.2-4.8c-2.2-3.1-4.8-7-10.3-7s-8.2,3.9-10.3,7c-2.1,3-3.5,4.8-6.1,4.8s-4.1-1.8-6.1-4.8c-2.2-3.1-4.9-7-10.3-7s-8.1,3.9-10.3,7c-2.1,3-3.5,4.8-6.2,4.8s-4.1-1.8-6.2-4.8c-2.2-3.1-4.8-7-10.3-7s-8.2,3.9-10.3,7c-2.1,3-3.5,4.8-6.2,4.8s-4.1-1.8-6.2-4.8c-2.2-3.1-4.9-7-10.3-7s-8.2,3.9-10.3,7c-2.1,3-3.5,4.8-6.2,4.8s-5.8-3-8.6-5.6c-3.8-3.7-9-8.7-13.9-3.8-4.9,4.9,0,10.1,3.7,13.9,2.7,2.8,5.7,5.8,5.7,8.6s-1.9,4.1-4.8,6.2c-3.1,2.2-7,4.9-7,10.3s3.9,8.1,7,10.3c3,2.1,4.8,3.5,4.8,6.2s-1.9,4.1-4.8,6.2c-3.1,2.2-7,4.9-7,10.3s3.9,8.1,7,10.3c3,2.1,4.8,3.5,4.8,6.2s-1.8,4.1-4.8,6.2c-3.1,2.2-7,4.8-7,10.3s3.9,8.1,7,10.3c3,2.1,4.8,3.5,4.8,6.2s-1.8,4.1-4.8,6.1c-3.1,2.2-7,4.9-7,10.3s3.9,8.1,7,10.3c3,2.1,4.8,3.5,4.8,6.1s-1.8,4.1-4.8,6.1c-3.1,2.2-7,4.9-7,10.3s3.9,8.1,7,10.3c3,2.1,4.8,3.5,4.8,6.2s-3,5.8-5.7,8.5c-3.6,3.8-8.7,9-3.7,13.9,4.9,4.9,10.1-.1,13.9-3.8,2.7-2.6,5.8-5.6,8.6-5.6s4.1,1.9,6.2,4.9c2.2,3.1,4.8,7,10.3,7s8.2-3.9,10.3-7.1c2.1-3,3.5-4.8,6.2-4.8s4.1,1.9,6.2,4.8c2.2,3.1,4.8,7.1,10.3,7.1s8.2-3.9,10.3-7.1c2.1-3,3.5-4.8,6.2-4.8s4.1,1.9,6.1,4.8c2.2,3.1,4.9,7.1,10.3,7.1s8.2-3.9,10.3-7.1c2.1-3,3.5-4.8,6.1-4.8s4.1,1.9,6.2,4.8c2.2,3.1,4.8,7.1,10.3,7.1s8.2-3.9,10.3-7.1c2.1-3,3.5-4.8,6.1-4.8s4.1,1.9,6.1,4.8c2.2,3.1,4.9,7.1,10.3,7.1s8.2-3.9,10.3-7.1c2.1-3,3.5-4.8,6.1-4.8s5.9,3,8.6,5.6c2.7,2.6,6,5.8,9.4,5.8s3-.6,4.4-2.1,2.3-3.1,2.3-4.8c0-2.9-2.2-4.9-4.7-7.2-2.6-2.4-5.5-5.2-6.9-9.4-.7-2.2.8-3.7,4.4-6.6,3.2-2.6,7.3-5.8,7.3-10.9s-3.9-8.1-7-10.3c-3-2.1-4.8-3.5-4.8-6.1s1.8-4.1,4.8-6.1c3.1-2.2,7-4.9,7-10.3s-3.9-8.1-7-10.3c-3-2.1-4.8-3.5-4.8-6.2s1.8-4,4.8-6.1c3.1-2.2,7-4.8,7-10.3s-3.9-8.2-7-10.3c-3-2.1-4.8-3.5-4.8-6.2s1.8-4.1,4.8-6.2h0ZM238.2,127.4c3,2.1,4.8,3.5,4.8,6.2s-1.8,4.1-4.8,6.1c-3.1,2.2-7,4.9-7,10.3s3.9,8.2,7,10.3c3,2.1,4.8,3.5,4.8,6.1s-1.8,4.1-4.8,6.2c-3.1,2.2-7,4.8-7,10.3s3.9,8.1,7,10.3c3,2.1,4.8,3.5,4.8,6.1s-2.6,4.8-5.3,7c-3.5,2.8-8,6.3-6.1,12.1,1.7,5.4,5.4,8.9,8.2,11.4,1.4,1.3,3.1,2.9,3.1,3.7,0,.1-.2.6-.8,1.2-1.1,1.1-2.2.7-6.9-3.8-3.4-3.3-7.3-7.1-12.1-7.1s-8.1,3.9-10.3,7c-2.1,3-3.5,4.9-6.2,4.9s-4-1.9-6.1-4.9c-2.2-3.1-4.8-7-10.3-7s-8.2,3.9-10.3,7c-2.1,3-3.5,4.9-6.1,4.9s-4.1-1.9-6.1-4.9c-2.2-3.1-4.9-7-10.3-7s-8.1,3.9-10.3,7c-2.1,3-3.5,4.9-6.2,4.9s-4-1.9-6.1-4.9c-2.2-3.1-4.8-7-10.3-7s-8.1,3.9-10.3,7c-2.1,3-3.5,4.9-6.2,4.9s-4.1-1.9-6.2-4.9c-2.2-3.1-4.9-7-10.3-7s-8.1,3.9-10.3,7c-2.1,3-3.5,4.9-6.2,4.9s-4.1-1.9-6.2-4.9c-2.2-3.1-4.9-7-10.3-7s-8.7,3.8-12.1,7.1c-4.6,4.5-5.8,4.9-6.8,3.8-1.1-1.1-.7-2.2,3.8-6.8,3.3-3.4,7.1-7.3,7.1-12.1s-3.9-8.2-7-10.3c-3-2.1-4.8-3.5-4.8-6.1s1.8-4.1,4.8-6.1c3.1-2.2,7-4.9,7-10.3s-3.9-8.1-7-10.3c-3-2.1-4.8-3.5-4.8-6.1s1.8-4.1,4.8-6.2c3.1-2.2,7-4.8,7-10.3s-3.9-8.2-7-10.3c-3-2.1-4.8-3.5-4.8-6.1s1.8-4.1,4.8-6.2c3.1-2.2,7-4.9,7-10.3s-3.9-8.1-7-10.3c-3-2.1-4.8-3.5-4.8-6.2s1.8-4.1,4.8-6.2c3.1-2.2,7-4.8,7-10.3s-3.9-8.2-7-10.3c-3-2.1-4.8-3.5-4.8-6.2s1.8-4.1,4.8-6.2c3.1-2.2,7-4.9,7-10.3s-3.7-8.6-7.1-12c-4.5-4.7-4.9-5.8-3.8-6.8,1.1-1.1,2.2-.7,6.8,3.8,3.4,3.3,7.3,7.1,12,7.1s8.1-3.9,10.3-7c2.1-3,3.5-4.8,6.2-4.8s4,1.9,6.2,4.8c2.2,3.1,4.8,7,10.3,7s8.1-3.9,10.3-7c2.1-3,3.5-4.8,6.2-4.8s4.1,1.9,6.2,4.8c2.2,3.1,4.9,7,10.3,7s8.1-3.9,10.3-7c2.1-3,3.5-4.8,6.1-4.8s4.1,1.9,6.2,4.8c2.2,3.1,4.8,7,10.3,7s8.1-3.9,10.3-7c2.1-3,3.5-4.8,6.2-4.8s4.1,1.9,6.1,4.8c2.2,3.1,4.9,7,10.3,7s8.1-3.9,10.3-7c2.1-3,3.5-4.8,6.2-4.8s4.1,1.9,6.1,4.8c2.2,3.1,4.9,7,10.3,7s8.7-3.7,12.1-7.1c4.6-4.5,5.8-4.9,6.8-3.8,1.1,1.1.7,2.2-3.8,6.8-3.3,3.4-7.1,7.3-7.1,12s3.9,8.2,7,10.3c3,2.1,4.8,3.5,4.8,6.2s-1.8,4.1-4.8,6.2c-3.1,2.2-7,4.9-7,10.3s3.9,8.2,7,10.3c3,2.1,4.8,3.5,4.8,6.2s-1.8,4.1-4.8,6.2c-3.1,2.2-7,4.8-7,10.3s3.9,8.1,7,10.3h0Z"/>
    <path class="cls-2" d="M158.3,99.7c-.1-1.8-1.6-3.3-3.4-3.4l-15.2-.7c-1.8,0-3.4,1.2-3.6,3l-6.8,44.2c-.3,1.9,1,3.7,2.9,4l5.9,1c1.9.3,3.7-1,4.1-2.9l2.1-12.6v-.7c.1,0,.6-.7.6-.7l5.2,1.5.8,26.3c0,1.9,1.6,3.4,3.5,3.4h2.9c2,0,3.6-1.7,3.5-3.7l-2.3-58.8h0ZM150.7,117.6c0,.6,0,1.2,0,1.7,0,.3,0,.7-.2,1-.2.2-.6.2-1,.2-1.2-.2-2.4-.3-3.6-.4-.7,0-1-.4-1-1.1,0-3.8.1-7.7,0-11.5,0-.3,0-.7.1-1,0,0,0-.2.1-.2.2-.2.4-.5.7-.7.8-.4,1.8-.5,2.6-.3.6.2,1.2.2,1.7.6.7.3.7,1.1.7,1.9,0,2.2,0,4.4,0,6.7s0,2.3-.1,3.4h0Z"/>
    <path class="cls-2" d="M168.3,93.4h4.5c1.8,0,3.3,1.3,3.6,3l5.6,30.4c.3,1.5,2.4,1.5,2.7,0l4.9-32.3c.1-.6.6-1.1,1.3-1.2l7.4-.4c.9,0,1.5.7,1.4,1.5l-11.2,81.7c0,.7-.7,1.2-1.4,1.2h-5.4c-.7,0-1.2-.5-1.3-1.1l-14.7-79.7c-.3-1.6.9-3.1,2.6-3.1h0Z"/>
    <path class="cls-1" d="M218.3,69c-1.8-1.7-3.8-2.5-6.2-2.6-41.6,1.1-63.3-.7-75-1.7-4.2-.3-7.3-.7-9.7-.7h0l-43.6-1.5c-12.2,0-20.1,16.3-20.1,27.5l-1.1,101.9c0,6.4,2.8,9.8,9.2,11.3,5.9,1.3,15.5,1.3,31.3,1.3h1.8l60.6,3h0c6.6.2,12.4.4,17.5.4,16.1,0,25.2-1.6,30.6-6.6,6.5-6.1,6.8-16.2,7.3-33,.1-3.1.2-6.4.4-10l1.2-77.8c0-4.3-1.6-8.8-4.2-11.4h0ZM216.2,158c-.1,3.6-.2,7-.4,10-.4,15.5-.7,24.9-5.6,29.5-5.8,5.4-19.6,5.9-44.5,4.9l-60.7-3h-1.9c-15.6,0-24.9,0-30.2-1.2-4.5-1-5.3-2.5-5.3-6.3l1.1-101.9c0-8.9,6.4-22.5,15-22.5l43.7,1.5c2.2,0,5.2.3,9.4.6,11.7,1,33.6,2.9,75.5,1.8,1,0,1.8.3,2.5,1.1,1.7,1.6,2.8,4.8,2.7,7.7l-1.2,77.8h0Z"/>
  </g>
  <path class="cls-2" d="M216.5,206.4H65.1c-2.3,0-4.2-1.9-4.2-4.2V65.2c0-2.3,1.9-4.2,4.2-4.2h151.4c2.3,0,4.2,1.9,4.2,4.2v136.9c0,2.3-1.9,4.2-4.2,4.2ZM65.8,201.3h149.9V66H65.8v135.3Z"/>
</svg>